<?xml version="1.0" standalone="no"?>
<!DOCTYPE svg PUBLIC "-//W3C//DTD SVG 20010904//EN"
 "http://www.w3.org/TR/2001/REC-SVG-20010904/DTD/svg10.dtd">
<svg version="1.0" xmlns="http://www.w3.org/2000/svg"
 width="500.000000pt" height="500.000000pt" viewBox="0 0 500.000000 500.000000"
 preserveAspectRatio="xMidYMid meet">

<g transform="translate(0.000000,500.000000) scale(0.100000,-0.100000)"
fill="#000000" stroke="none">
<path d="M2475 3320 c-27 -11 -71 -60 -80 -87 -8 -27 -27 -30 -46 -6 -24 28
-72 43 -112 33 -44 -10 -63 -24 -83 -61 -30 -60 -2 -151 51 -165 39 -10 30
-27 -10 -20 -40 8 -41 6 -19 -36 12 -22 19 -27 27 -19 22 22 27 10 27 -69 0
-73 2 -80 20 -80 27 0 25 -27 -2 -36 -13 -4 -45 -8 -73 -9 -27 -2 -60 -3 -72
-4 -17 -1 -23 -7 -23 -25 0 -22 3 -23 40 -16 22 4 46 12 53 18 7 6 32 14 56
18 32 5 45 13 51 30 9 23 11 24 197 26 l188 3 3 53 3 52 35 0 c20 0 49 -9 65
-21 l29 -20 0 101 0 102 -36 -21 c-42 -25 -94 -28 -94 -6 0 8 -7 15 -15 15
-11 0 -10 7 7 36 43 73 18 168 -54 205 -38 20 -98 24 -133 9z m114 -86 c12
-15 21 -38 21 -51 0 -32 -42 -73 -75 -73 -34 0 -75 42 -75 76 0 68 88 100 129
48z m-287 -41 c22 -20 24 -66 2 -87 -23 -24 -70 -20 -88 6 -21 30 -20 54 4 78
24 24 57 26 82 3z m118 -103 c10 -18 8 -20 -20 -20 -32 0 -33 1 -24 24 8 22
31 20 44 -4z m210 -240 c0 -5 -4 -10 -10 -10 -5 0 -10 5 -10 10 0 6 5 10 10
10 6 0 10 -4 10 -10z"/>
<path d="M2520 3230 c0 -5 5 -10 10 -10 6 0 10 5 10 10 0 6 -4 10 -10 10 -5 0
-10 -4 -10 -10z"/>
<path d="M2556 3211 c-4 -5 -2 -12 3 -15 5 -4 12 -2 15 3 4 5 2 12 -3 15 -5 4
-12 2 -15 -3z"/>
<path d="M2490 3194 c0 -8 5 -12 10 -9 6 4 8 11 5 16 -9 14 -15 11 -15 -7z"/>
<path d="M2506 3161 c-4 -5 -2 -12 3 -15 5 -4 12 -2 15 3 4 5 2 12 -3 15 -5 4
-12 2 -15 -3z"/>
<path d="M2550 3160 c0 -5 5 -10 10 -10 6 0 10 5 10 10 0 6 -4 10 -10 10 -5 0
-10 -4 -10 -10z"/>
<path d="M2250 3180 c0 -5 5 -10 10 -10 6 0 10 5 10 10 0 6 -4 10 -10 10 -5 0
-10 -4 -10 -10z"/>
<path d="M2280 3159 c0 -5 5 -7 10 -4 6 3 10 8 10 11 0 2 -4 4 -10 4 -5 0 -10
-5 -10 -11z"/>
<path d="M2275 3130 c-3 -5 -1 -10 4 -10 6 0 11 5 11 10 0 6 -2 10 -4 10 -3 0
-8 -4 -11 -10z"/>
<path d="M2240 3119 c0 -5 5 -7 10 -4 6 3 10 8 10 11 0 2 -4 4 -10 4 -5 0 -10
-5 -10 -11z"/>
<path d="M1517 2973 c-4 -3 -7 -26 -7 -50 l0 -43 38 1 c31 1 33 2 13 8 -35 9
-39 31 -6 31 15 0 24 4 20 10 -3 6 -15 10 -26 10 -10 0 -19 5 -19 10 0 6 11
10 25 10 14 0 25 5 25 10 0 11 -53 14 -63 3z"/>
<path d="M1632 2968 c-20 -20 -14 -35 19 -47 37 -13 29 -36 -10 -26 -19 5 -23
4 -15 -5 17 -17 58 -8 62 12 2 11 -6 22 -22 29 -34 16 -33 29 2 29 21 0 24 2
12 10 -20 13 -34 12 -48 -2z"/>
<path d="M1720 2970 c0 -5 7 -10 15 -10 11 0 15 -11 15 -40 0 -22 5 -40 10
-40 6 0 10 18 10 40 0 30 4 40 16 40 8 0 12 5 9 10 -3 6 -22 10 -41 10 -19 0
-34 -4 -34 -10z"/>
<path d="M1837 2973 c-4 -3 -7 -26 -7 -50 0 -42 0 -43 35 -43 39 0 70 34 59
64 -10 26 -71 46 -87 29z m63 -28 c18 -21 5 -45 -25 -45 -21 0 -25 5 -25 30 0
23 5 30 19 30 10 0 24 -7 31 -15z"/>
<path d="M3080 2970 c-15 -10 -8 -14 23 -11 25 3 21 -19 -10 -51 l-27 -28 37
0 c20 0 37 5 37 10 0 6 -7 10 -17 10 -14 0 -14 2 3 21 30 33 -8 74 -46 49z"/>
<path d="M3184 2955 c-30 -46 17 -100 54 -63 19 19 15 66 -7 78 -27 14 -28 13
-47 -15z m44 -27 c-3 -36 -15 -42 -31 -17 -13 21 -2 49 18 49 12 0 15 -8 13
-32z"/>
<path d="M3290 2970 c-15 -10 -8 -14 23 -11 25 3 21 -19 -10 -51 l-27 -28 37
0 c20 0 37 5 37 10 0 6 -7 10 -17 10 -14 0 -14 2 3 21 30 33 -8 74 -46 49z"/>
<path d="M3397 2973 c-4 -3 -7 -17 -7 -30 0 -17 6 -23 21 -23 12 0 19 -5 16
-12 -2 -7 -15 -11 -28 -10 -18 3 -21 1 -13 -8 19 -19 59 -8 62 17 3 17 -3 24
-22 29 -29 7 -25 24 5 24 11 0 17 5 14 10 -7 11 -38 13 -48 3z"/>
<path d="M2352 2769 c3 -17 -8 -92 -24 -167 -16 -76 -33 -162 -38 -192 -5 -30
-25 -132 -45 -227 -19 -94 -35 -180 -35 -189 0 -46 22 17 75 211 31 116 61
212 66 213 5 2 9 17 9 34 0 38 41 190 49 182 3 -3 16 -161 27 -350 12 -190 24
-347 28 -351 3 -3 8 -4 12 -1 3 3 14 171 25 374 11 202 21 369 22 371 2 1 41
-136 87 -305 107 -396 109 -404 119 -397 5 2 -11 100 -35 217 -24 117 -41 221
-38 231 3 10 0 25 -7 33 -17 20 -67 275 -61 313 l4 31 -122 0 -122 0 4 -31z
m58 -25 c0 -9 -73 -278 -77 -283 -12 -16 -8 19 13 124 33 166 33 165 49 165 8
0 15 -3 15 -6z m85 -131 c-7 -155 -9 -163 -29 -163 -11 0 -16 19 -20 78 -4 42
-9 110 -12 150 l-6 72 37 0 36 0 -6 -137z m70 115 c19 -80 53 -264 49 -267 -2
-2 -5 -2 -7 0 -4 5 -77 274 -77 283 0 17 30 3 35 -16z m-248 -330 c-3 -8 -6
-5 -6 6 -1 11 2 17 5 13 3 -3 4 -12 1 -19z m162 -50 c0 -40 -4 -93 -8 -118 -8
-43 -9 -42 -10 26 0 39 -4 92 -7 118 -6 38 -4 46 10 46 13 0 16 -12 15 -72z
m148 50 c-3 -8 -6 -5 -6 6 -1 11 2 17 5 13 3 -3 4 -12 1 -19z m-320 -40 c-3
-8 -6 -5 -6 6 -1 11 2 17 5 13 3 -3 4 -12 1 -19z m330 0 c-3 -8 -6 -5 -6 6 -1
11 2 17 5 13 3 -3 4 -12 1 -19z"/>
<path d="M1087 2584 c-4 -4 -7 -74 -7 -156 l0 -148 25 0 c24 0 24 1 27 98 l3
97 25 -95 c24 -89 28 -95 53 -98 l28 -3 -3 153 c-3 145 -4 153 -23 153 -18 0
-21 -8 -25 -75 l-5 -75 -20 75 c-18 67 -23 75 -45 78 -14 2 -29 0 -33 -4z"/>
<path d="M1317 2583 c-4 -3 -7 -73 -7 -155 l0 -148 25 0 25 0 0 155 c0 144 -1
155 -18 155 -10 0 -22 -3 -25 -7z"/>
<path d="M1460 2570 c-18 -18 -20 -33 -20 -133 0 -135 10 -157 70 -157 53 0
70 26 70 107 l0 63 -35 0 c-28 0 -35 -4 -35 -19 0 -10 7 -21 15 -25 16 -6 20
-53 6 -75 -5 -8 -16 -11 -25 -8 -13 5 -16 24 -16 112 0 99 1 105 20 105 15 0
22 -9 27 -30 4 -21 11 -30 24 -30 15 0 19 7 19 35 0 44 -29 75 -70 75 -17 0
-39 -9 -50 -20z"/>
<path d="M1657 2583 c-4 -3 -7 -73 -7 -155 l0 -148 25 0 c24 0 25 2 25 65 l0
65 30 0 30 0 0 -65 c0 -63 1 -65 25 -65 l26 0 -3 153 c-3 148 -4 152 -25 155
-21 3 -22 -1 -25 -65 -3 -65 -4 -68 -28 -68 -24 0 -25 3 -28 68 -2 57 -6 67
-21 67 -10 0 -21 -3 -24 -7z"/>
<path d="M1877 2583 c-4 -3 -7 -15 -7 -25 0 -13 7 -18 25 -18 l25 0 0 -130 0
-130 25 0 25 0 0 130 0 130 25 0 c20 0 25 5 25 25 0 24 -2 25 -68 25 -38 0
-72 -3 -75 -7z"/>
<path d="M2858 2575 c-3 -3 3 -58 13 -123 30 -197 25 -182 64 -182 39 0 34
-15 64 183 16 102 16 119 4 124 -24 9 -30 -7 -47 -122 -9 -60 -18 -110 -20
-112 -1 -2 -8 41 -15 95 -17 129 -20 142 -40 142 -10 0 -20 -2 -23 -5z"/>
<path d="M3087 2574 c-4 -4 -7 -74 -7 -156 l0 -148 70 0 c63 0 70 2 70 19 0
16 -8 20 -42 23 -43 3 -43 3 -46 46 l-3 42 35 0 c32 0 36 3 36 25 0 22 -4 25
-35 25 -34 0 -35 1 -35 39 0 40 0 40 43 43 34 2 42 7 42 23 0 17 -8 20 -60 23
-34 2 -64 0 -68 -4z"/>
<path d="M3290 2425 l0 -155 25 0 c24 0 25 3 25 60 0 53 2 60 20 60 16 0 19
-8 22 -57 3 -54 5 -58 28 -61 l26 -3 -8 68 c-10 84 -10 89 -2 135 10 61 -1 86
-44 97 -20 6 -49 11 -64 11 l-28 0 0 -155z m88 63 c-2 -31 -8 -44 -20 -46 -15
-3 -18 4 -18 42 0 40 3 46 21 46 18 0 20 -5 17 -42z"/>
<path d="M3523 2554 c-36 -36 -27 -82 27 -140 31 -34 40 -52 38 -72 -4 -33
-32 -36 -36 -4 -5 32 -52 32 -52 -1 0 -41 27 -67 69 -67 47 0 71 24 71 73 0
29 -9 47 -45 87 -50 56 -60 100 -24 100 12 0 23 -8 26 -20 3 -11 14 -20 24
-20 26 0 25 44 -1 70 -27 27 -66 25 -97 -6z"/>
<path d="M3717 2574 c-4 -4 -7 -74 -7 -156 l0 -148 70 0 c63 0 70 2 70 19 0
16 -8 20 -42 23 -43 3 -43 3 -46 46 l-3 42 35 0 c32 0 36 3 36 25 0 22 -4 25
-35 25 -34 0 -35 1 -35 39 0 40 0 40 43 43 34 2 42 7 42 23 0 17 -8 20 -60 23
-34 2 -64 0 -68 -4z"/>
</g>
</svg>
