<?xml version="1.0" standalone="no"?>
<!DOCTYPE svg PUBLIC "-//W3C//DTD SVG 20010904//EN"
 "http://www.w3.org/TR/2001/REC-SVG-20010904/DTD/svg10.dtd">
<svg version="1.0" xmlns="http://www.w3.org/2000/svg"
 width="500.000000pt" height="500.000000pt" viewBox="0 0 500.000000 500.000000"
 preserveAspectRatio="xMidYMid meet">

<g transform="translate(0.000000,500.000000) scale(0.100000,-0.100000)"
fill="#000000" stroke="none">
<path d="M0 2500 l0 -2500 2500 0 2500 0 0 2500 0 2500 -2500 0 -2500 0 0
-2500z m2608 811 c72 -37 97 -132 54 -205 -12 -20 -17 -36 -12 -36 6 0 10 -7
10 -15 0 -23 62 -19 104 6 l36 21 0 -101 0 -102 -37 26 c-21 14 -52 25 -70 25
l-33 0 0 -60 0 -60 -185 0 -185 0 -9 -24 c-7 -17 -20 -25 -52 -30 -24 -4 -48
-11 -54 -16 -6 -5 -30 -13 -53 -18 -40 -9 -42 -9 -42 14 0 18 6 24 23 25 107
5 148 9 157 14 18 11 11 35 -10 35 -18 0 -20 7 -20 80 0 79 -5 91 -27 69 -8
-8 -15 -3 -27 19 -22 42 -21 44 19 36 42 -8 46 6 7 23 -76 34 -82 157 -10 207
36 26 111 21 146 -9 37 -31 49 -31 58 -2 24 81 130 120 212 78z m-1028 -341
c0 -5 -11 -10 -25 -10 -14 0 -25 -4 -25 -10 0 -5 9 -10 19 -10 11 0 23 -4 26
-10 4 -6 -5 -10 -19 -10 -14 0 -26 -4 -26 -10 0 -5 11 -10 25 -10 14 0 25 -4
25 -10 0 -5 -16 -10 -35 -10 -35 0 -35 0 -35 43 0 24 3 47 7 50 10 11 63 8 63
-3z m100 0 c12 -8 9 -10 -12 -10 -35 0 -36 -13 -2 -29 36 -16 28 -45 -14 -49
-18 -2 -32 1 -32 7 0 6 10 10 21 8 31 -3 35 19 4 27 -27 7 -32 25 -13 44 14
14 28 15 48 2z m120 0 c0 -5 -7 -10 -15 -10 -11 0 -15 -11 -15 -40 0 -22 -4
-40 -10 -40 -5 0 -10 18 -10 40 0 29 -4 40 -15 40 -8 0 -15 5 -15 10 0 6 18
10 40 10 22 0 40 -4 40 -10z m93 1 c58 -22 35 -91 -30 -91 -32 0 -33 1 -33 43
0 59 11 68 63 48z m1241 -13 c8 -13 6 -22 -8 -37 -17 -19 -17 -21 -3 -21 10 0
17 -4 17 -10 0 -5 -17 -10 -37 -10 l-37 0 27 28 c31 32 35 54 10 51 -31 -3
-38 1 -23 11 20 13 41 9 54 -12z m97 12 c22 -12 26 -59 7 -78 -20 -20 -48 -14
-60 13 -9 19 -8 29 6 50 19 28 20 29 47 15z m113 -12 c8 -13 6 -22 -8 -37 -17
-19 -17 -21 -3 -21 10 0 17 -4 17 -10 0 -5 -17 -10 -37 -10 l-37 0 27 28 c31
32 35 54 10 51 -31 -3 -38 1 -23 11 20 13 41 9 54 -12z m101 12 c3 -5 -3 -10
-14 -10 -27 0 -27 -16 0 -23 30 -8 22 -51 -10 -55 -13 -2 -28 2 -35 8 -8 9 -5
11 13 8 13 -1 26 3 28 10 3 7 -4 12 -16 12 -17 0 -21 6 -21 30 0 25 4 30 24
30 14 0 28 -4 31 -10z m-857 -201 c-6 -38 44 -293 61 -313 7 -8 10 -23 7 -33
-3 -11 14 -114 38 -231 24 -117 40 -214 35 -217 -10 -7 -12 0 -119 397 -46
169 -85 306 -87 304 -2 -1 -12 -168 -23 -371 -10 -202 -22 -370 -25 -373 -3
-3 -8 -3 -11 0 -3 4 -15 156 -25 340 -11 183 -23 344 -26 358 -4 19 -11 6 -29
-60 -13 -47 -24 -99 -24 -117 0 -17 -4 -33 -9 -35 -5 -1 -35 -97 -66 -213 -52
-190 -75 -257 -75 -214 0 9 14 83 30 165 17 82 37 185 45 229 9 44 28 141 44
217 15 75 26 150 23 167 l-4 31 122 0 122 0 -4 -31z m-1423 -279 l20 -75 5 75
c4 67 7 75 25 75 19 0 20 -8 23 -153 l3 -153 -28 3 c-26 3 -30 9 -53 98 l-25
95 -3 -97 c-3 -97 -3 -98 -27 -98 l-25 0 0 148 c0 82 3 152 7 156 4 4 19 6 33
4 22 -3 27 -11 45 -78z m195 -75 l0 -155 -25 0 -25 0 0 148 c0 82 3 152 7 155
3 4 15 7 25 7 17 0 18 -11 18 -155z m200 135 c27 -27 28 -90 1 -90 -13 0 -20
9 -24 30 -5 21 -12 30 -27 30 -19 0 -20 -6 -20 -105 0 -88 3 -107 16 -112 9
-3 20 0 25 8 14 22 10 69 -6 75 -8 4 -15 15 -15 25 0 15 7 19 35 19 l35 0 0
-67 c0 -79 -16 -103 -68 -103 -64 0 -72 17 -72 152 0 105 2 120 20 138 11 11
33 20 50 20 17 0 39 -9 50 -20z m142 -47 c3 -65 4 -68 28 -68 24 0 25 3 28 68
3 64 4 68 25 65 21 -3 22 -7 25 -155 l3 -153 -26 0 c-24 0 -25 2 -25 65 l0 65
-30 0 -30 0 0 -65 c0 -63 -1 -65 -25 -65 l-25 0 0 148 c0 82 3 152 7 155 3 4
14 7 24 7 15 0 19 -10 21 -67z m318 42 c0 -20 -5 -25 -25 -25 l-25 0 0 -130 0
-130 -25 0 -25 0 0 130 0 130 -25 0 c-18 0 -25 5 -25 18 0 29 8 32 82 32 66 0
68 -1 68 -25z m883 3 c3 -13 11 -66 18 -118 14 -107 20 -101 39 43 12 85 28
114 50 91 5 -6 -24 -230 -39 -301 -1 -2 -17 -3 -36 -3 -39 0 -32 -17 -64 180
-10 63 -17 118 -14 123 10 16 41 6 46 -15z m315 -5 c3 -21 -1 -23 -42 -23
l-46 0 0 -40 c0 -39 1 -40 35 -40 31 0 35 -3 35 -25 0 -22 -4 -25 -36 -25
l-35 0 3 -42 c3 -43 3 -43 46 -46 34 -3 42 -7 42 -23 0 -17 -7 -19 -70 -19
l-70 0 0 148 c0 82 3 152 7 156 4 4 34 6 68 4 54 -3 60 -5 63 -25z m200 0 c9
-12 12 -34 8 -68 -7 -66 -7 -69 2 -148 l8 -68 -26 3 c-23 3 -25 8 -30 58 -4
42 -9 56 -22 58 -16 3 -18 -5 -18 -57 0 -58 -1 -61 -25 -61 l-25 0 0 156 0
157 57 -6 c39 -4 62 -12 71 -24z m202 7 c26 -26 27 -70 1 -70 -10 0 -21 9 -24
20 -3 12 -14 20 -26 20 -35 0 -25 -41 24 -99 35 -41 45 -60 45 -89 0 -48 -24
-72 -71 -72 -42 0 -69 26 -69 67 0 33 47 33 52 1 4 -31 32 -29 36 2 2 16 -6
35 -20 50 -72 76 -84 117 -47 164 25 32 70 35 99 6z m228 -7 c3 -21 -1 -23
-42 -23 l-46 0 0 -40 c0 -39 1 -40 35 -40 31 0 35 -3 35 -25 0 -22 -4 -25 -36
-25 l-35 0 3 -42 c3 -43 3 -43 46 -46 34 -3 42 -7 42 -23 0 -17 -7 -19 -70
-19 l-70 0 0 148 c0 82 3 152 7 156 4 4 34 6 68 4 54 -3 60 -5 63 -25z"/>
<path d="M2482 3237 c-12 -13 -22 -36 -22 -51 0 -34 41 -76 75 -76 33 0 75 41
75 73 0 67 -83 102 -128 54z m58 -7 c0 -5 -4 -10 -10 -10 -5 0 -10 5 -10 10 0
6 5 10 10 10 6 0 10 -4 10 -10z m34 -31 c-3 -5 -10 -7 -15 -3 -5 3 -7 10 -3
15 3 5 10 7 15 3 5 -3 7 -10 3 -15z m-69 2 c3 -5 1 -12 -5 -16 -5 -3 -10 1
-10 9 0 18 6 21 15 7z m19 -52 c-3 -5 -10 -7 -15 -3 -5 3 -7 10 -3 15 3 5 10
7 15 3 5 -3 7 -10 3 -15z m46 11 c0 -5 -4 -10 -10 -10 -5 0 -10 5 -10 10 0 6
5 10 10 10 6 0 10 -4 10 -10z"/>
<path d="M2220 3190 c-53 -53 13 -126 81 -90 13 7 19 21 19 44 0 59 -59 87
-100 46z m50 -4 c0 -3 -4 -8 -10 -11 -5 -3 -10 -1 -10 4 0 6 5 11 10 11 6 0
10 -2 10 -4z m30 -20 c0 -3 -4 -8 -10 -11 -5 -3 -10 -1 -10 4 0 6 5 11 10 11
6 0 10 -2 10 -4z m-10 -36 c0 -5 -5 -10 -11 -10 -5 0 -7 5 -4 10 3 6 8 10 11
10 2 0 4 -4 4 -10z m-30 -4 c0 -3 -4 -8 -10 -11 -5 -3 -10 -1 -10 4 0 6 5 11
10 11 6 0 10 -2 10 -4z"/>
<path d="M2376 3094 c-9 -24 -9 -24 29 -24 34 0 34 1 18 20 -21 24 -39 26 -47
4z"/>
<path d="M2610 2850 c0 -5 5 -10 10 -10 6 0 10 5 10 10 0 6 -4 10 -10 10 -5 0
-10 -4 -10 -10z"/>
<path d="M1850 2930 c0 -25 4 -30 25 -30 14 0 28 7 31 15 8 20 -13 45 -37 45
-14 0 -19 -7 -19 -30z"/>
<path d="M3194 2945 c-9 -21 3 -45 21 -45 10 0 15 10 15 30 0 32 -26 43 -36
15z"/>
<path d="M2375 2728 c-21 -89 -54 -272 -50 -276 2 -3 7 1 10 9 8 24 75 273 75
281 0 19 -30 6 -35 -14z"/>
<path d="M2434 2663 c14 -191 17 -213 32 -213 20 0 22 7 29 163 l6 137 -36 0
-37 0 6 -87z"/>
<path d="M2530 2742 c0 -8 67 -257 75 -281 23 -62 -4 115 -40 267 -5 20 -35
33 -35 14z"/>
<path d="M2311 2404 c0 -11 3 -14 6 -6 3 7 2 16 -1 19 -3 4 -6 -2 -5 -13z"/>
<path d="M2454 2368 c3 -29 6 -82 7 -118 1 -61 2 -63 10 -25 4 22 8 75 8 118
1 65 -2 77 -15 77 -14 0 -16 -8 -10 -52z"/>
<path d="M2621 2404 c0 -11 3 -14 6 -6 3 7 2 16 -1 19 -3 4 -6 -2 -5 -13z"/>
<path d="M2301 2364 c0 -11 3 -14 6 -6 3 7 2 16 -1 19 -3 4 -6 -2 -5 -13z"/>
<path d="M2631 2364 c0 -11 3 -14 6 -6 3 7 2 16 -1 19 -3 4 -6 -2 -5 -13z"/>
<path d="M3340 2475 c0 -39 3 -46 18 -43 13 2 17 13 17 43 0 30 -4 41 -17 43
-15 3 -18 -4 -18 -43z"/>
</g>
</svg>
